<svg width="246" height="246" viewBox="0 0 246 246" fill="none" xmlns="http://www.w3.org/2000/svg">
<path d="M122.58 245.86C103.038 245.866 83.7784 241.201 66.4059 232.252C49.0334 223.304 34.0518 210.333 22.7102 194.419C11.3686 178.505 3.99565 160.111 1.20613 140.769C-1.58339 121.428 0.291336 101.7 6.67399 83.2298C13.0567 64.7599 23.7623 48.0835 37.8983 34.5909C52.0343 21.0984 69.191 11.1807 87.938 5.66481C106.685 0.148929 126.479 -0.805331 145.67 2.88159C164.86 6.56851 182.892 14.7898 198.26 26.8599C204.708 31.9273 210.637 37.6219 215.96 43.8599C231.12 61.6826 240.861 83.4734 244.029 106.656C247.198 129.839 243.663 153.444 233.841 174.682C224.02 195.919 208.323 213.9 188.607 226.499C168.89 239.099 145.978 245.789 122.58 245.78V245.86ZM122.58 7.69993C95.235 7.67352 68.7658 17.3407 47.8743 34.9844C26.9828 52.628 13.0216 77.1057 8.47065 104.069C3.91973 131.033 9.07376 158.737 23.0172 182.26C36.9606 205.783 58.7906 223.602 84.6296 232.552C110.468 241.502 138.643 241.004 164.149 231.145C189.655 221.286 210.841 202.706 223.943 178.704C237.046 154.702 241.216 126.833 235.714 100.047C230.212 73.2615 215.393 49.2932 193.89 32.3999C173.552 16.4218 148.444 7.72491 122.58 7.69993Z" fill="#59DC67"/>
<path d="M184.84 120.88V118.1C185.159 117.761 185.581 117.536 186.04 117.46C187.79 116.93 189.51 116.34 191.25 115.8C192.45 115.44 192.52 115.33 192.51 114.11C192.51 111.36 192.8 111.75 190.17 111.71C188.7 111.71 188.45 111.46 188.44 109.98V80.7801C188.44 79.4201 188.64 79.2501 190.01 79.2301H191.77C191.87 79.2396 191.972 79.2266 192.067 79.1922C192.161 79.1577 192.247 79.1025 192.318 79.0307C192.389 78.9589 192.443 78.8723 192.476 78.7771C192.509 78.6818 192.521 78.5804 192.51 78.4801V78.3901C192.51 74.9901 192.94 75.6801 190.06 74.6901C187.82 73.9101 185.55 73.1801 183.3 72.4301C182.826 72.2897 182.382 72.0625 181.99 71.7601L179.62 68.1301C184.513 69.7501 189.4 71.3701 194.28 72.9901C194.622 73.0706 194.923 73.2715 195.129 73.5562C195.335 73.8409 195.431 74.1903 195.4 74.5401C195.4 75.8401 195.47 77.1401 195.4 78.4301C195.32 79.4301 195.69 79.6401 196.58 79.5501C197.28 79.4801 198 79.5501 198.71 79.5501C199.25 79.5501 199.45 79.7201 199.39 80.2401C199.38 80.3332 199.38 80.4271 199.39 80.5201V110.35C199.39 111.1 199.23 111.41 198.39 111.35C197.55 111.29 196.85 111.35 196.08 111.35C195.49 111.35 195.35 111.55 195.36 112.1V116.36C195.401 116.717 195.308 117.075 195.099 117.367C194.89 117.659 194.581 117.863 194.23 117.94L184.8 120.94" fill="#354250"/>
<path d="M60.3199 120.88C60.3199 119.95 60.3199 119.02 60.3699 118.1H60.3199C60.0029 117.758 59.5803 117.533 59.1199 117.46C57.3799 116.93 55.6598 116.34 53.9098 115.8C52.7098 115.44 52.6498 115.33 52.6498 114.11C52.6498 111.36 52.3699 111.75 54.9899 111.71C56.4699 111.71 56.7198 111.46 56.7198 109.98V80.8102C56.7198 79.4502 56.5298 79.2802 55.1598 79.2602H53.3998C53.299 79.2716 53.1969 79.2599 53.1013 79.2261C53.0056 79.1923 52.9189 79.1372 52.8476 79.065C52.7763 78.9927 52.7224 78.9053 52.6899 78.8092C52.6574 78.7131 52.6471 78.6108 52.6598 78.5102V78.4202C52.6598 75.0202 52.2299 75.7102 55.0999 74.7202C57.3499 73.9402 59.6099 73.2102 61.8699 72.4602C62.3414 72.3203 62.7824 72.0931 63.1699 71.7902L65.5399 68.1602C60.6599 69.7802 55.7732 71.4002 50.8799 73.0202C50.5424 73.098 50.244 73.2941 50.0386 73.5729C49.8331 73.8517 49.7343 74.1948 49.7599 74.5402C49.7599 75.8402 49.6799 77.1402 49.7599 78.4302C49.8399 79.4302 49.4599 79.6402 48.5699 79.5502C47.8699 79.4802 47.1499 79.5502 46.4499 79.5502C45.9099 79.5502 45.6999 79.7201 45.7699 80.2402C45.7749 80.3334 45.7749 80.4269 45.7699 80.5202C45.7699 90.4602 45.7699 100.403 45.7699 110.35C45.7699 111.1 45.9199 111.41 46.7199 111.35C47.5199 111.29 48.2699 111.35 49.0399 111.35C49.6199 111.35 49.7699 111.55 49.7499 112.1V116.36C49.7067 116.716 49.7975 117.074 50.0046 117.367C50.2117 117.659 50.5202 117.863 50.8699 117.94L60.3099 120.94" fill="#354250"/>
<path d="M153.33 185.03H92.3304C91.6294 185.027 90.9578 184.747 90.463 184.25C89.9682 183.754 89.6904 183.081 89.6904 182.38V178.27H155.98V182.38C155.98 183.083 155.701 183.757 155.204 184.254C154.707 184.751 154.033 185.03 153.33 185.03Z" fill="#354250"/>
<path d="M75.8701 198.93H63.8101C62.4071 198.93 61.0615 198.373 60.0695 197.381C59.0774 196.389 58.52 195.043 58.52 193.64V179.12H81.16V193.64C81.16 195.043 80.6027 196.389 79.6107 197.381C78.6186 198.373 77.2731 198.93 75.8701 198.93Z" fill="#354250"/>
<path d="M181.34 198.93H169.34C167.937 198.93 166.591 198.373 165.599 197.381C164.607 196.389 164.05 195.043 164.05 193.64V179.12H186.68V193.64C186.68 195.043 186.122 196.389 185.13 197.381C184.138 198.373 182.793 198.93 181.39 198.93" fill="#354250"/>
<path d="M185.21 178.89H59.9502C58.5472 178.89 57.2017 178.333 56.2096 177.341C55.2175 176.349 54.6602 175.003 54.6602 173.6V131.31C54.6602 128.971 55.5894 126.727 57.2435 125.073C58.8975 123.419 61.141 122.49 63.4802 122.49H181.68C184.019 122.49 186.263 123.419 187.917 125.073C189.571 126.727 190.5 128.971 190.5 131.31V173.6C190.5 175.003 189.943 176.349 188.951 177.341C187.959 178.333 186.613 178.89 185.21 178.89Z" fill="#FFC614"/>
<path d="M181.63 122.45H63.5297C62.8604 122.451 62.1974 122.321 61.5787 122.065C60.96 121.81 60.3978 121.435 59.9241 120.963C59.4504 120.49 59.0745 119.928 58.8181 119.31C58.5617 118.692 58.4297 118.029 58.4297 117.36V85.9399H186.72V117.36C186.72 118.028 186.588 118.69 186.332 119.308C186.076 119.925 185.702 120.486 185.229 120.959C184.756 121.432 184.195 121.807 183.578 122.062C182.96 122.318 182.298 122.45 181.63 122.45Z" fill="#B1882E"/>
<path d="M186.72 85.0301C186.72 105.7 158 122.45 122.58 122.45C87.1597 122.45 58.4297 105.7 58.4297 85.0301C58.4297 64.3601 87.1497 47.6201 122.58 47.6201C158.01 47.6201 186.72 64.3701 186.72 85.0301Z" fill="#FFC614"/>
<path d="M153.45 74.8101H92.34C91.4038 74.8101 90.5059 74.4382 89.8439 73.7762C89.1819 73.1142 88.8101 72.2163 88.8101 71.2801V64.8701C88.8101 63.9339 89.1819 63.036 89.8439 62.374C90.5059 61.712 91.4038 61.3401 92.34 61.3401H153.45C154.386 61.3401 155.284 61.712 155.946 62.374C156.608 63.036 156.98 63.9339 156.98 64.8701V71.2801C156.98 72.2163 156.608 73.1142 155.946 73.7762C155.284 74.4382 154.386 74.8101 153.45 74.8101Z" fill="#EAEAEA"/>
<path d="M171.09 83.1401H68.6104V122.46H171.09V83.1401Z" fill="#B1882E"/>
<path d="M69.6203 137.07C71.4399 137.018 73.2335 137.511 74.7713 138.485C76.3091 139.459 77.5209 140.87 78.2516 142.538C78.9823 144.205 79.1985 146.052 78.8724 147.843C78.5464 149.634 77.6931 151.287 76.4218 152.59C75.1504 153.893 73.519 154.786 71.7366 155.156C69.9542 155.526 68.1021 155.355 66.4174 154.665C64.7328 153.975 63.2925 152.798 62.281 151.285C61.2696 149.771 60.7331 147.99 60.7403 146.17C60.7497 143.797 61.6815 141.521 63.3387 139.823C64.9959 138.125 67.2485 137.138 69.6203 137.07Z" fill="#F3F5F6"/>
<path d="M184.7 146.21C184.718 147.418 184.492 148.617 184.036 149.736C183.58 150.855 182.904 151.871 182.047 152.723C181.191 153.575 180.171 154.246 179.05 154.696C177.928 155.145 176.728 155.364 175.52 155.34C174.295 155.372 173.076 155.158 171.936 154.71C170.795 154.262 169.757 153.59 168.881 152.732C168.006 151.875 167.312 150.85 166.841 149.719C166.37 148.588 166.13 147.373 166.138 146.148C166.145 144.923 166.399 143.712 166.884 142.586C167.369 141.461 168.075 140.445 168.96 139.598C169.846 138.751 170.893 138.091 172.038 137.657C173.184 137.222 174.406 137.023 175.63 137.07C176.83 137.061 178.019 137.291 179.128 137.748C180.238 138.205 181.244 138.879 182.089 139.73C182.934 140.582 183.601 141.594 184.049 142.707C184.497 143.819 184.719 145.01 184.7 146.21Z" fill="#F3F5F6"/>
<path d="M122.6 138.27H89.4101C89.114 138.295 88.8162 138.295 88.5201 138.27C88.1681 138.249 87.8385 138.091 87.6027 137.829C87.3668 137.567 87.2438 137.222 87.2602 136.87C87.2422 136.704 87.2577 136.536 87.3056 136.377C87.3536 136.217 87.433 136.068 87.5392 135.94C87.6455 135.811 87.7764 135.705 87.9242 135.628C88.0721 135.55 88.2339 135.504 88.4001 135.49C88.79 135.425 89.1849 135.395 89.5802 135.4H155.58C155.975 135.396 156.369 135.423 156.76 135.48C156.935 135.493 157.105 135.542 157.261 135.624C157.416 135.706 157.552 135.819 157.662 135.956C157.772 136.093 157.852 136.251 157.898 136.42C157.944 136.589 157.955 136.766 157.93 136.94C157.93 137.294 157.79 137.633 157.541 137.884C157.292 138.135 156.954 138.277 156.6 138.28C156.304 138.295 156.007 138.295 155.71 138.28H122.6" fill="#354250"/>
<path d="M122.58 152.37H156.05C157.25 152.37 157.85 152.8 157.89 153.7C157.939 154.033 157.855 154.371 157.657 154.642C157.459 154.914 157.162 155.096 156.83 155.15C156.412 155.228 155.986 155.262 155.56 155.25H89.5601C89.1313 155.257 88.7027 155.223 88.2801 155.15C87.9755 155.09 87.7043 154.918 87.5195 154.668C87.3346 154.419 87.2493 154.109 87.2801 153.8C87.2594 153.465 87.3665 153.134 87.5798 152.874C87.7932 152.614 88.097 152.445 88.4301 152.4C88.7625 152.364 89.0978 152.364 89.4301 152.4H122.61" fill="#354250"/>
<path d="M122.6 143.88H88.5099C88.3348 143.881 88.1614 143.845 88.0009 143.775C87.8404 143.705 87.6963 143.602 87.5777 143.473C87.4591 143.344 87.3687 143.192 87.3123 143.026C87.2559 142.86 87.2346 142.684 87.2499 142.51C87.2363 142.336 87.2574 142.161 87.3121 141.995C87.3667 141.829 87.4537 141.675 87.5682 141.543C87.6826 141.411 87.8221 141.303 87.9786 141.225C88.1351 141.147 88.3055 141.101 88.4799 141.09C88.7095 141.07 88.9403 141.07 89.1699 141.09H155.95C156.212 141.06 156.477 141.06 156.74 141.09C156.914 141.109 157.082 141.162 157.235 141.246C157.388 141.33 157.523 141.444 157.632 141.58C157.741 141.717 157.822 141.874 157.869 142.042C157.917 142.211 157.931 142.386 157.91 142.56C157.915 142.727 157.888 142.893 157.829 143.049C157.77 143.205 157.681 143.348 157.566 143.47C157.452 143.592 157.315 143.69 157.163 143.758C157.011 143.827 156.847 143.865 156.68 143.87H122.6" fill="#354250"/>
<path d="M122.59 146.74H156.68C156.847 146.744 157.011 146.781 157.164 146.848C157.316 146.915 157.454 147.012 157.569 147.133C157.684 147.254 157.775 147.396 157.835 147.552C157.895 147.707 157.924 147.873 157.92 148.04C157.946 148.216 157.937 148.396 157.892 148.568C157.847 148.74 157.767 148.901 157.658 149.042C157.548 149.182 157.411 149.299 157.255 149.384C157.099 149.47 156.927 149.523 156.75 149.54C156.487 149.57 156.222 149.57 155.96 149.54H89.1899C88.2999 149.54 87.5098 149.44 87.2798 148.4C87.2306 148.207 87.2251 148.005 87.2636 147.81C87.3021 147.614 87.3837 147.43 87.5024 147.27C87.6212 147.11 87.7742 146.978 87.9502 146.885C88.1262 146.792 88.3208 146.739 88.5198 146.73H122.6" fill="#354250"/>
<path d="M185.26 180.91H60.0497C58.6467 180.91 57.3012 180.353 56.3091 179.361C55.3171 178.369 54.7598 177.023 54.7598 175.62V170.54C54.7598 169.137 55.3171 167.791 56.3091 166.799C57.3012 165.807 58.6467 165.25 60.0497 165.25H185.26C186.663 165.25 188.008 165.807 189 166.799C189.992 167.791 190.55 169.137 190.55 170.54V175.59C190.55 176.993 189.992 178.339 189 179.331C188.008 180.323 186.663 180.88 185.26 180.88" fill="#C8D5DD"/>
<path d="M187.8 173.1H57.2501C56.5473 173.1 55.8733 172.821 55.3763 172.324C54.8793 171.827 54.6001 171.153 54.6001 170.45V167.92C54.6027 167.219 54.8831 166.547 55.3798 166.053C55.8765 165.558 56.549 165.28 57.2501 165.28H187.8C188.5 165.28 189.172 165.558 189.667 166.053C190.162 166.548 190.44 167.22 190.44 167.92V170.45C190.44 171.151 190.162 171.824 189.667 172.32C189.173 172.817 188.501 173.097 187.8 173.1Z" fill="#EAEAEA"/>
<path d="M173.71 117.44H67.9598C67.2093 117.44 66.4895 117.142 65.9587 116.611C65.428 116.08 65.1299 115.361 65.1299 114.61V85.9101C65.1299 85.1595 65.428 84.4397 65.9587 83.909C66.4895 83.3782 67.2093 83.0801 67.9598 83.0801H173.71C174.081 83.0801 174.449 83.1533 174.793 83.2955C175.136 83.4377 175.448 83.6462 175.711 83.909C175.974 84.1718 176.182 84.4837 176.324 84.8271C176.467 85.1704 176.54 85.5384 176.54 85.9101V114.61C176.54 114.982 176.467 115.35 176.324 115.693C176.182 116.036 175.974 116.348 175.711 116.611C175.448 116.874 175.136 117.082 174.793 117.225C174.449 117.367 174.081 117.44 173.71 117.44Z" fill="white"/>
<path d="M166.79 68.0699C166.79 68.8848 166.548 69.6814 166.095 70.3589C165.643 71.0364 164.999 71.5645 164.246 71.8763C163.494 72.1882 162.665 72.2698 161.866 72.1108C161.067 71.9518 160.333 71.5594 159.757 70.9832C159.18 70.407 158.788 69.6729 158.629 68.8737C158.47 68.0745 158.552 67.2461 158.863 66.4933C159.175 65.7405 159.703 65.097 160.381 64.6443C161.058 64.1916 161.855 63.95 162.67 63.95C163.762 63.95 164.81 64.384 165.583 65.1567C166.356 65.9293 166.79 66.9773 166.79 68.0699Z" fill="#F6EB14"/>
<path d="M172.99 70.07C172.988 70.7375 172.72 71.3767 172.247 71.8472C171.773 72.3178 171.133 72.5814 170.465 72.58C169.798 72.5787 169.158 72.3126 168.687 71.8402C168.215 71.3677 167.95 70.7275 167.95 70.06C167.95 69.3926 168.215 68.7523 168.687 68.2799C169.158 67.8074 169.798 67.5414 170.465 67.54C171.133 67.5387 171.773 67.8023 172.247 68.2728C172.72 68.7434 172.988 69.3826 172.99 70.05" fill="#ED1E24"/>
<path d="M79.0498 68.0699C79.0498 68.8848 79.2914 69.6814 79.7441 70.3589C80.1969 71.0364 80.8403 71.5645 81.5931 71.8763C82.346 72.1882 83.1744 72.2698 83.9736 72.1108C84.7728 71.9518 85.5069 71.5594 86.0831 70.9832C86.6593 70.407 87.0517 69.6729 87.2106 68.8737C87.3696 68.0745 87.288 67.2461 86.9762 66.4933C86.6644 65.7405 86.1363 65.097 85.4587 64.6443C84.7812 64.1916 83.9847 63.95 83.1698 63.95C82.0771 63.95 81.0292 64.384 80.2565 65.1567C79.4839 65.9293 79.0498 66.9773 79.0498 68.0699Z" fill="#F6EB14"/>
<path d="M72.8101 70.07C72.8127 70.7375 73.08 71.3767 73.5534 71.8472C74.0268 72.3178 74.6675 72.5814 75.335 72.58C76.0025 72.5787 76.6422 72.3126 77.1137 71.8402C77.5852 71.3677 77.85 70.7275 77.85 70.06C77.85 69.3926 77.5852 68.7523 77.1137 68.2799C76.6422 67.8074 76.0025 67.5414 75.335 67.54C74.6675 67.5387 74.0268 67.8023 73.5534 68.2728C73.08 68.7434 72.8127 69.3826 72.8101 70.05" fill="#ED1E24"/>
<path d="M178.05 161.34C178.052 161.839 177.906 162.327 177.63 162.743C177.354 163.159 176.961 163.483 176.501 163.675C176.041 163.868 175.534 163.919 175.044 163.823C174.555 163.727 174.105 163.488 173.751 163.136C173.398 162.784 173.157 162.335 173.059 161.845C172.961 161.356 173.01 160.849 173.201 160.388C173.391 159.927 173.714 159.533 174.129 159.255C174.543 158.978 175.031 158.83 175.53 158.83C176.196 158.83 176.836 159.094 177.308 159.565C177.78 160.035 178.047 160.673 178.05 161.34Z" fill="#ED1E24"/>
<path d="M71.0498 161.34C71.0517 161.839 70.9057 162.327 70.63 162.743C70.3543 163.159 69.9614 163.483 69.5011 163.675C69.0408 163.868 68.5338 163.919 68.0443 163.823C67.5548 163.727 67.1049 163.488 66.7514 163.136C66.398 162.784 66.157 162.335 66.0589 161.845C65.9609 161.356 66.0102 160.849 66.2006 160.388C66.3911 159.927 66.7141 159.533 67.1287 159.255C67.5433 158.978 68.0309 158.83 68.5297 158.83C69.1964 158.83 69.8358 159.094 70.3081 159.565C70.7804 160.035 71.0471 160.673 71.0498 161.34Z" fill="#ED1E24"/>
<path d="M94.29 70.1938H95.5688C95.5981 70.4517 95.7344 70.6611 95.9775 70.8223C96.2236 70.9805 96.5239 71.0596 96.8784 71.0596C97.23 71.0596 97.5156 70.9849 97.7354 70.8354C97.958 70.6831 98.0693 70.4897 98.0693 70.2554C98.0693 70.0503 97.9873 69.8848 97.8232 69.7588C97.6592 69.6328 97.3853 69.5273 97.0015 69.4424L96.1753 69.2622C95.0122 69.0132 94.4307 68.4229 94.4307 67.4912C94.4307 66.9111 94.6562 66.4424 95.1074 66.085C95.5615 65.7275 96.1445 65.5488 96.8564 65.5488C97.5889 65.5488 98.1733 65.7231 98.6099 66.0718C99.0464 66.4175 99.2705 66.8789 99.2822 67.4561H98.0386C98.0181 67.1895 97.8994 66.98 97.6826 66.8276C97.4688 66.6724 97.1948 66.5947 96.8608 66.5947C96.5327 66.5947 96.2676 66.6665 96.0654 66.8101C95.8662 66.9536 95.7666 67.1426 95.7666 67.377C95.7666 67.5703 95.8472 67.7271 96.0083 67.8472C96.1724 67.9673 96.4375 68.0698 96.8037 68.1548L97.5728 68.3174C98.2085 68.4521 98.6714 68.6631 98.9614 68.9502C99.2515 69.2344 99.3965 69.6182 99.3965 70.1016C99.3965 70.7168 99.165 71.2061 98.7021 71.5693C98.2393 71.9297 97.6138 72.1099 96.8257 72.1099C96.061 72.1099 95.4517 71.9399 94.9976 71.6001C94.5464 71.2573 94.3105 70.7886 94.29 70.1938ZM103.018 72.1099C102.092 72.1099 101.359 71.8184 100.82 71.2354C100.284 70.6494 100.016 69.8467 100.016 68.8271C100.016 67.8105 100.286 67.0107 100.825 66.4277C101.364 65.8418 102.095 65.5488 103.018 65.5488C103.521 65.5488 103.979 65.6484 104.389 65.8477C104.802 66.0469 105.133 66.3281 105.382 66.6914C105.631 67.0547 105.771 67.4692 105.804 67.9351H104.512C104.45 67.5454 104.282 67.2334 104.006 66.999C103.734 66.7646 103.404 66.6475 103.018 66.6475C102.517 66.6475 102.117 66.8438 101.818 67.2363C101.519 67.6289 101.37 68.1577 101.37 68.8228C101.37 69.4995 101.518 70.0342 101.813 70.4268C102.109 70.8164 102.512 71.0112 103.022 71.0112C103.415 71.0112 103.744 70.9028 104.011 70.686C104.277 70.4692 104.446 70.1733 104.516 69.7983H105.808C105.735 70.5044 105.446 71.0669 104.942 71.4858C104.438 71.9019 103.797 72.1099 103.018 72.1099ZM112.141 72H110.813V69.3281H107.957V72H106.63V65.6587H107.957V68.2339H110.813V65.6587H112.141V72ZM113.819 66.4321C114.37 65.8433 115.116 65.5488 116.056 65.5488C116.997 65.5488 117.741 65.8433 118.289 66.4321C118.839 67.021 119.115 67.8208 119.115 68.8315C119.115 69.8394 118.839 70.6377 118.289 71.2266C117.738 71.8154 116.994 72.1099 116.056 72.1099C115.116 72.1099 114.37 71.8154 113.819 71.2266C113.271 70.6377 112.998 69.8394 112.998 68.8315C112.998 67.8208 113.271 67.021 113.819 66.4321ZM117.295 67.2451C116.988 66.8525 116.575 66.6562 116.056 66.6562C115.538 66.6562 115.123 66.8525 114.812 67.2451C114.505 67.6377 114.351 68.1665 114.351 68.8315C114.351 69.4937 114.505 70.021 114.812 70.4136C115.12 70.8032 115.535 70.998 116.056 70.998C116.575 70.998 116.988 70.8032 117.295 70.4136C117.603 70.021 117.757 69.4937 117.757 68.8315C117.757 68.1665 117.603 67.6377 117.295 67.2451ZM120.596 66.4321C121.146 65.8433 121.892 65.5488 122.833 65.5488C123.773 65.5488 124.517 65.8433 125.065 66.4321C125.616 67.021 125.891 67.8208 125.891 68.8315C125.891 69.8394 125.616 70.6377 125.065 71.2266C124.514 71.8154 123.77 72.1099 122.833 72.1099C121.892 72.1099 121.146 71.8154 120.596 71.2266C120.048 70.6377 119.774 69.8394 119.774 68.8315C119.774 67.8208 120.048 67.021 120.596 66.4321ZM124.072 67.2451C123.764 66.8525 123.351 66.6562 122.833 66.6562C122.314 66.6562 121.899 66.8525 121.589 67.2451C121.281 67.6377 121.127 68.1665 121.127 68.8315C121.127 69.4937 121.281 70.021 121.589 70.4136C121.896 70.8032 122.311 70.998 122.833 70.998C123.351 70.998 123.764 70.8032 124.072 70.4136C124.379 70.021 124.533 69.4937 124.533 68.8315C124.533 68.1665 124.379 67.6377 124.072 67.2451ZM130.848 70.9014V72H126.748V65.6587H128.075V70.9014H130.848ZM136.227 72H133.419V65.6587H136.179C136.773 65.6587 137.245 65.8008 137.594 66.085C137.942 66.3691 138.117 66.7544 138.117 67.2407C138.117 67.5864 138.002 67.8896 137.774 68.1504C137.548 68.4111 137.266 68.5664 136.926 68.6162V68.6514C137.359 68.6836 137.717 68.8433 137.998 69.1304C138.279 69.4175 138.42 69.769 138.42 70.1851C138.42 70.7446 138.224 71.187 137.831 71.5122C137.438 71.8374 136.904 72 136.227 72ZM134.746 66.6475V68.2954H135.7C136.054 68.2954 136.328 68.2222 136.521 68.0757C136.715 67.9263 136.812 67.7168 136.812 67.4473C136.812 67.1924 136.727 66.9961 136.557 66.8584C136.387 66.7178 136.146 66.6475 135.836 66.6475H134.746ZM134.746 71.0112H135.889C136.272 71.0112 136.564 70.9321 136.763 70.7739C136.965 70.6128 137.066 70.3813 137.066 70.0796C137.066 69.7837 136.962 69.5581 136.754 69.4028C136.549 69.2476 136.25 69.1699 135.858 69.1699H134.746V71.0112ZM140.503 65.6587V69.627C140.503 70.04 140.619 70.3682 140.85 70.6113C141.084 70.8516 141.413 70.9717 141.834 70.9717C142.253 70.9717 142.579 70.8516 142.81 70.6113C143.044 70.3682 143.162 70.04 143.162 69.627V65.6587H144.489V69.7588C144.489 70.4619 144.247 71.0303 143.764 71.4639C143.283 71.8945 142.64 72.1099 141.834 72.1099C141.026 72.1099 140.38 71.8945 139.896 71.4639C139.416 71.0303 139.176 70.4619 139.176 69.7588V65.6587H140.503ZM145.311 70.1938H146.589C146.619 70.4517 146.755 70.6611 146.998 70.8223C147.244 70.9805 147.544 71.0596 147.899 71.0596C148.25 71.0596 148.536 70.9849 148.756 70.8354C148.979 70.6831 149.09 70.4897 149.09 70.2554C149.09 70.0503 149.008 69.8848 148.844 69.7588C148.68 69.6328 148.406 69.5273 148.022 69.4424L147.196 69.2622C146.033 69.0132 145.451 68.4229 145.451 67.4912C145.451 66.9111 145.677 66.4424 146.128 66.085C146.582 65.7275 147.165 65.5488 147.877 65.5488C148.609 65.5488 149.194 65.7231 149.63 66.0718C150.067 66.4175 150.291 66.8789 150.303 67.4561H149.059C149.039 67.1895 148.92 66.98 148.703 66.8276C148.489 66.6724 148.215 66.5947 147.881 66.5947C147.553 66.5947 147.288 66.6665 147.086 66.8101C146.887 66.9536 146.787 67.1426 146.787 67.377C146.787 67.5703 146.868 67.7271 147.029 67.8472C147.193 67.9673 147.458 68.0698 147.824 68.1548L148.593 68.3174C149.229 68.4521 149.692 68.6631 149.982 68.9502C150.272 69.2344 150.417 69.6182 150.417 70.1016C150.417 70.7168 150.186 71.2061 149.723 71.5693C149.26 71.9297 148.634 72.1099 147.846 72.1099C147.082 72.1099 146.472 71.9399 146.018 71.6001C145.567 71.2573 145.331 70.7886 145.311 70.1938Z" fill="black"/>
</svg>
