<svg width="30" height="30" viewBox="0 0 30 30" fill="none" xmlns="http://www.w3.org/2000/svg">
<path d="M19.8862 15.153L30 21.5468V8.48926L19.8862 15.153Z" fill="#FF7272"/>
<path d="M0 8.48926V21.5468L10.1138 15.153L0 8.48926Z" fill="#FF7272"/>
<path d="M28.1251 4.6875H1.87515C0.939521 4.6875 0.197021 5.385 0.0563965 6.28313L15.0001 16.1287L29.9439 6.28313C29.8033 5.385 29.0608 4.6875 28.1251 4.6875Z" fill="#FF7272"/>
<path d="M18.1688 16.2861L15.5157 18.0336C15.3582 18.1367 15.1801 18.1873 15.0001 18.1873C14.8201 18.1873 14.6419 18.1367 14.4844 18.0336L11.8313 16.2842L0.0600586 23.7298C0.204434 24.6204 0.943184 25.3123 1.87506 25.3123H28.1251C29.0569 25.3123 29.7957 24.6204 29.9401 23.7298L18.1688 16.2861Z" fill="#FF7272"/>
</svg>
