<svg width="30" height="30" viewBox="0 0 30 30" fill="none" xmlns="http://www.w3.org/2000/svg">
<path d="M26.7432 21.1415C24.8534 19.5439 23.7696 17.2088 23.7696 14.7351V11.2501C23.7696 6.85149 20.5021 3.21021 16.2696 2.60024C16.2696 2.60024 15.6901 2.5 15 2.5C14.3102 2.5 13.7695 2.60038 13.7695 2.60038C9.53568 3.21035 6.26953 6.85149 6.26953 11.2501V14.7351C6.26953 17.2088 5.18578 19.5439 3.28445 21.1513C2.79831 21.5677 2.51953 22.1726 2.51953 22.8126C2.51953 24.019 3.50075 25.0002 4.70695 25.0002H25.332C26.5384 25.0002 27.5196 24.019 27.5196 22.8126C27.5196 22.1726 27.2408 21.5677 26.7432 21.1415Z" fill="#467DED"/>
<path d="M15.0193 30C17.2831 30 19.1769 28.3862 19.6118 26.25H10.4268C10.8619 28.3862 12.7556 30 15.0193 30Z" fill="#467DED"/>
</svg>
